<?xml version="1.0" encoding="UTF-8" standalone="no"?>
<!-- Generator: Adobe Illustrator 12.0.1, SVG Export Plug-In . SVG Version: 6.00 Build 51448)  -->
<svg
   xmlns:dc="http://purl.org/dc/elements/1.1/"
   xmlns:cc="http://web.resource.org/cc/"
   xmlns:rdf="http://www.w3.org/1999/02/22-rdf-syntax-ns#"
   xmlns:svg="http://www.w3.org/2000/svg"
   xmlns="http://www.w3.org/2000/svg"
   xmlns:sodipodi="http://sodipodi.sourceforge.net/DTD/sodipodi-0.dtd"
   xmlns:inkscape="http://www.inkscape.org/namespaces/inkscape"
   version="1.1"
   id="Layer_1"
   width="282.439"
   height="248.697"
   viewBox="0 0 282.439 248.697"
   style="overflow:visible;enable-background:new 0 0 282.439 248.697;"
   xml:space="preserve"
   sodipodi:version="0.32"
   inkscape:version="0.44.1"
   sodipodi:docname="Yohimban - Yohimban.svg"
   sodipodi:docbase="E:\Eigene Dateien"><metadata
   id="metadata188"><rdf:RDF><cc:Work
       rdf:about=""><dc:format>image/svg+xml</dc:format><dc:type
         rdf:resource="http://purl.org/dc/dcmitype/StillImage" /></cc:Work></rdf:RDF></metadata><defs
   id="defs186" /><sodipodi:namedview
   inkscape:window-height="573"
   inkscape:window-width="925"
   inkscape:pageshadow="2"
   inkscape:pageopacity="0.0"
   guidetolerance="10.0"
   gridtolerance="10.0"
   objecttolerance="10.0"
   borderopacity="1.0"
   bordercolor="#666666"
   pagecolor="#ffffff"
   id="base"
   inkscape:zoom="1.5199218"
   inkscape:cx="141.2195"
   inkscape:cy="124.3485"
   inkscape:window-x="132"
   inkscape:window-y="132"
   inkscape:current-layer="Layer_1" />
<g
   id="g3"
   transform="matrix(0.95,0,0,0.95,7.060975,6.21745)">
	<path
   d="M 97.078,89.85 L 97.078,72.662 L 99.418,72.662 L 108.422,86.15 L 108.422,72.662 L 110.61,72.662 L 110.61,89.85 L 108.27,89.85 L 99.265,76.36 L 99.265,89.85 L 97.078,89.85 z "
   id="path5" />
</g>
<g
   id="g7"
   transform="matrix(0.95,0,0,0.95,7.060975,6.21745)">
	<path
   d="M 97.187,109.8 L 97.187,92.612 L 99.468,92.612 L 99.468,99.675 L 108.359,99.675 L 108.359,92.612 L 110.64,92.612 L 110.64,109.8 L 108.359,109.8 L 108.359,101.706 L 99.468,101.706 L 99.468,109.8 L 97.187,109.8 z "
   id="path9" />
</g>
<path
   d="M 73.939075,63.21745 L 73.132525,63.69245 L 72.325025,63.21745 L 72.325025,26.45245 L 73.132525,25.97745 L 73.939075,26.78495 L 73.939075,63.21745 z "
   id="polygon11" />
<path
   d="M 66.673475,29.25495 L 68.287525,29.25495 L 68.287525,60.414949 L 66.673475,60.414949 L 66.673475,29.25495 z "
   id="rect13" />
<path
   d="M 96.360975,76.23245 L 95.551575,77.60995 L 73.132525,64.59495 L 73.132525,63.69245 L 73.939075,63.21745 L 96.360975,76.23245 z "
   id="polygon15" />
<path
   d="M 137.58908,63.21745 L 138.39848,63.69245 L 138.39848,64.59495 L 115.83598,77.65745 L 115.02658,76.27995 L 137.58908,63.21745 z "
   id="polygon17" />
<path
   d="M 137.58908,26.78495 L 138.39848,25.97745 L 139.20598,26.45245 L 139.20598,63.21745 L 138.39848,63.69245 L 137.58908,63.21745 L 137.58908,26.78495 z "
   id="polygon19" />
<path
   d="M 131.93753,31.62995 L 133.55158,31.62995 L 133.55158,60.414949 L 131.93753,60.414949 L 131.93753,31.62995 z "
   id="rect21" />
<path
   d="M 138.20753,25.16995 L 138.39848,25.97745 L 137.58908,26.78495 L 73.939075,26.78495 L 73.132525,25.97745 L 73.323475,25.16995 L 138.20753,25.16995 z "
   id="polygon23" />
<path
   d="M 40.500025,8.06995 L 40.500025,6.21745 L 73.323475,25.16995 L 73.132525,25.97745 L 72.325025,26.45245 L 40.500025,8.06995 z "
   id="polygon25" />
<path
   d="M 8.675025,26.45245 L 7.060975,25.54995 L 40.500025,6.21745 L 40.500025,8.06995 L 8.675025,26.45245 z "
   id="polygon27" />
<path
   d="M 13.900025,29.96745 L 13.093475,28.54245 L 40.073475,12.96245 L 40.880975,14.38745 L 13.900025,29.96745 z "
   id="polygon29" />
<path
   d="M 8.675025,63.21745 L 7.060975,64.11995 L 7.060975,25.54995 L 8.675025,26.45245 L 8.675025,63.21745 z "
   id="polygon31" />
<path
   d="M 40.500025,81.59995 L 40.500025,83.45245 L 7.060975,64.11995 L 8.675025,63.21745 L 40.500025,81.59995 z "
   id="polygon33" />
<path
   d="M 40.880975,75.28245 L 40.073475,76.70745 L 13.093475,61.12745 L 13.900025,59.70245 L 40.880975,75.28245 z "
   id="polygon35" />
<path
   d="M 72.325025,63.21745 L 73.132525,63.69245 L 73.132525,64.59495 L 40.500025,83.45245 L 40.500025,81.59995 L 72.325025,63.21745 z "
   id="polygon37" />
<g
   id="g39"
   transform="matrix(0.95,0,0,0.95,7.060975,6.21745)">
	<path
   d="M 200.178,69.95 L 200.178,52.763 L 202.518,52.763 L 211.522,66.251 L 211.522,52.763 L 213.71,52.763 L 213.71,69.95 L 211.37,69.95 L 202.366,56.461 L 202.366,69.95 L 200.178,69.95 z "
   id="path41" />
</g>
<path
   d="M 171.03098,81.59995 L 171.03098,82.50245 L 170.22348,82.97745 L 138.39848,64.59495 L 138.39848,63.69245 L 139.20598,63.21745 L 171.03098,81.59995 z "
   id="polygon43" />
<path
   d="M 193.49848,68.63245 L 194.30597,70.00995 L 171.83753,82.97745 L 171.03098,82.50245 L 171.03098,81.59995 L 193.49848,68.63245 z "
   id="polygon45" />
<path
   d="M 202.85598,26.45245 L 204.47003,25.54995 L 204.47003,54.14495 L 202.85598,54.14495 L 202.85598,26.45245 z "
   id="polygon47" />
<path
   d="M 171.03098,8.06995 L 171.03098,6.21745 L 204.47003,25.54995 L 202.85598,26.45245 L 171.03098,8.06995 z "
   id="polygon49" />
<path
   d="M 139.20598,26.45245 L 138.39848,25.97745 L 138.20753,25.16995 L 171.03098,6.21745 L 171.03098,8.06995 L 139.20598,26.45245 z "
   id="polygon51" />
<path
   d="M 171.83753,119.74245 L 170.22348,120.64495 L 170.22348,82.97745 L 171.03098,82.50245 L 171.83753,82.97745 L 171.83753,119.74245 z "
   id="polygon53" />
<path
   d="M 203.66253,138.07745 L 203.66253,139.02745 L 202.85598,139.50245 L 170.22348,120.64495 L 171.83753,119.74245 L 203.66253,138.07745 z "
   id="polygon55" />
<path
   d="M 235.48753,119.74245 L 236.29503,120.16995 L 236.29503,121.11995 L 204.47003,139.50245 L 203.66253,139.02745 L 203.66253,138.07745 L 235.48753,119.74245 z "
   id="polygon57" />
<path
   d="M 235.48753,82.97745 L 237.10158,82.02745 L 237.10158,118.60245 L 236.29503,120.16995 L 235.48753,119.74245 L 235.48753,82.97745 z "
   id="polygon59" />
<path
   d="M 212.97348,69.96245 L 213.78097,68.58495 L 237.10158,82.02745 L 235.48753,82.97745 L 212.97348,69.96245 z "
   id="polygon61" />
<path
   d="M 204.47003,176.21995 L 202.85598,177.16995 L 202.85598,139.50245 L 203.66253,139.02745 L 204.47003,139.50245 L 204.47003,176.21995 z "
   id="polygon63" />
<path
   d="M 236.29503,194.60245 L 236.29503,196.45495 L 202.85598,177.16995 L 204.47003,176.21995 L 236.29503,194.60245 z "
   id="polygon65" />
<path
   d="M 268.12003,176.21995 L 269.73598,177.16995 L 236.29503,196.45495 L 236.29503,194.60245 L 268.12003,176.21995 z "
   id="polygon67" />
<path
   d="M 268.12003,139.50245 L 269.73598,138.55245 L 269.73598,177.16995 L 268.12003,176.21995 L 268.12003,139.50245 z "
   id="polygon69" />
<path
   d="M 236.29503,121.11995 L 236.29503,120.16995 L 238.10003,120.26495 L 269.73598,138.55245 L 268.12003,139.50245 L 236.29503,121.11995 z "
   id="polygon71" />
<path
   d="M 175.68598,197.07245 L 172.02658,190.75495 L 173.50003,190.08995 L 177.01407,196.12245 L 175.68598,197.07245 z "
   id="polygon73" />
<path
   d="M 178.34503,195.17245 L 175.02003,189.37745 L 176.49347,188.71245 L 179.67503,194.22245 L 178.34503,195.17245 z "
   id="polygon75" />
<path
   d="M 181.05158,193.27245 L 178.01253,187.99995 L 179.48598,187.33495 L 182.38253,192.32245 L 181.05158,193.27245 z "
   id="polygon77" />
<path
   d="M 183.76098,191.37245 L 181.00598,186.62245 L 182.47658,185.95745 L 185.08908,190.42245 L 183.76098,191.37245 z "
   id="polygon79" />
<path
   d="M 186.46847,189.47245 L 183.99848,185.24495 L 185.47003,184.53245 L 187.79848,188.52245 L 186.46847,189.47245 z "
   id="polygon81" />
<path
   d="M 189.17503,187.57245 L 187.03753,183.86745 L 188.51098,183.15495 L 190.50598,186.62245 L 189.17503,187.57245 z "
   id="polygon83" />
<path
   d="M 191.88253,185.67245 L 190.03097,182.44245 L 191.50158,181.77745 L 193.16408,184.72245 L 191.88253,185.67245 z "
   id="polygon85" />
<path
   d="M 194.54348,183.77245 L 193.02347,181.06495 L 194.49503,180.39995 L 195.87348,182.82245 L 194.54348,183.77245 z "
   id="polygon87" />
<path
   d="M 197.25003,181.87245 L 196.01407,179.68745 L 197.48753,179.02245 L 198.58098,180.92245 L 197.25003,181.87245 z "
   id="polygon89" />
<path
   d="M 199.95753,179.97245 L 199.00753,178.30995 L 200.48098,177.59745 L 201.28753,179.02245 L 199.95753,179.97245 z "
   id="polygon91" />
<g
   id="g93"
   transform="matrix(0.95,0,0,0.95,7.060975,6.21745)">
	<path
   d="M 233.105,240.035 C 233.105,237.183 233.871,234.95 235.403,233.336 C 236.935,231.723 238.913,230.916 241.336,230.916 C 242.923,230.916 244.354,231.295 245.627,232.053 C 246.9,232.811 247.872,233.868 248.541,235.224 C 249.209,236.58 249.543,238.118 249.543,239.836 C 249.543,241.578 249.191,243.138 248.488,244.513 C 247.784,245.889 246.787,246.93 245.498,247.637 C 244.208,248.344 242.816,248.698 241.324,248.698 C 239.706,248.698 238.26,248.307 236.986,247.526 C 235.712,246.745 234.747,245.678 234.09,244.326 C 233.434,242.974 233.105,241.543 233.105,240.035 z M 235.449,240.064 C 235.449,242.134 236.006,243.765 237.12,244.957 C 238.234,246.149 239.632,246.744 241.312,246.744 C 243.024,246.744 244.433,246.142 245.54,244.939 C 246.647,243.736 247.199,242.029 247.199,239.818 C 247.199,238.42 246.963,237.199 246.49,236.156 C 246.016,235.113 245.324,234.304 244.414,233.73 C 243.504,233.156 242.481,232.869 241.348,232.869 C 239.738,232.869 238.352,233.422 237.191,234.527 C 236.03,235.632 235.449,237.479 235.449,240.064 z "
   id="path95" />
	<path
   d="M 252.555,248.4 L 252.555,231.212 L 254.836,231.212 L 254.836,238.275 L 263.727,238.275 L 263.727,231.212 L 266.008,231.212 L 266.008,248.4 L 263.727,248.4 L 263.727,240.306 L 254.836,240.306 L 254.836,248.4 L 252.555,248.4 z "
   id="path97" />
</g>
<path
   d="M 239.95157,223.38745 L 232.68598,223.38745 L 232.87503,221.77245 L 239.76253,221.77245 L 239.95157,223.38745 z "
   id="polygon99" />
<path
   d="M 239.57348,220.10995 L 233.06408,220.10995 L 233.25598,218.49495 L 239.38253,218.49495 L 239.57348,220.10995 z "
   id="polygon101" />
<path
   d="M 239.19348,216.83245 L 233.44503,216.83245 L 233.58753,215.21745 L 239.00158,215.21745 L 239.19348,216.83245 z "
   id="polygon103" />
<path
   d="M 238.81253,213.55495 L 233.77658,213.55495 L 233.96847,211.93995 L 238.62348,211.93995 L 238.81253,213.55495 z "
   id="polygon105" />
<path
   d="M 238.43253,210.27745 L 234.15753,210.27745 L 234.34848,208.66245 L 238.24347,208.66245 L 238.43253,210.27745 z "
   id="polygon107" />
<path
   d="M 238.05157,206.95245 L 234.53753,206.95245 L 234.72658,205.33745 L 237.86253,205.33745 L 238.05157,206.95245 z "
   id="polygon109" />
<path
   d="M 237.67348,203.67495 L 234.91848,203.67495 L 235.10753,202.05995 L 237.48253,202.05995 L 237.67348,203.67495 z "
   id="polygon111" />
<path
   d="M 237.29348,200.39745 L 235.29848,200.39745 L 235.48753,198.78245 L 237.10158,198.78245 L 237.29348,200.39745 z "
   id="polygon113" />
<g
   id="g115"
   transform="matrix(0.95,0,0,0.95,7.060975,6.21745)">
	<path
   d="M 130.056,180.535 C 130.056,177.683 130.822,175.45 132.354,173.836 C 133.886,172.223 135.864,171.416 138.287,171.416 C 139.874,171.416 141.304,171.795 142.578,172.553 C 143.852,173.311 144.823,174.368 145.492,175.724 C 146.16,177.08 146.494,178.618 146.494,180.336 C 146.494,182.078 146.142,183.638 145.439,185.013 C 144.735,186.389 143.739,187.43 142.449,188.137 C 141.159,188.844 139.768,189.198 138.275,189.198 C 136.657,189.198 135.211,188.807 133.937,188.026 C 132.663,187.245 131.698,186.178 131.041,184.826 C 130.384,183.474 130.056,182.043 130.056,180.535 z M 132.399,180.564 C 132.399,182.634 132.956,184.265 134.07,185.457 C 135.184,186.649 136.582,187.244 138.262,187.244 C 139.974,187.244 141.383,186.642 142.49,185.439 C 143.596,184.236 144.149,182.529 144.149,180.318 C 144.149,178.92 143.913,177.699 143.44,176.656 C 142.967,175.613 142.275,174.804 141.364,174.23 C 140.453,173.656 139.431,173.369 138.298,173.369 C 136.688,173.369 135.302,173.922 134.141,175.027 C 132.98,176.132 132.399,177.979 132.399,180.564 z "
   id="path117" />
</g>
<path
   d="M 147.23253,182.72745 L 148.03908,181.30245 L 171.45753,194.83995 L 170.65003,196.21745 L 147.23253,182.72745 z "
   id="polygon119" />
<g
   id="g121"
   transform="matrix(0.95,0,0,0.95,7.060975,6.21745)">
	<path
   d="M 164.406,240.035 C 164.406,237.183 165.172,234.95 166.703,233.336 C 168.236,231.723 170.213,230.916 172.637,230.916 C 174.223,230.916 175.654,231.295 176.928,232.053 C 178.201,232.811 179.172,233.868 179.841,235.224 C 180.51,236.58 180.844,238.118 180.844,239.836 C 180.844,241.578 180.492,243.138 179.788,244.513 C 179.084,245.889 178.088,246.93 176.799,247.637 C 175.508,248.344 174.117,248.698 172.625,248.698 C 171.006,248.698 169.561,248.307 168.287,247.526 C 167.012,246.745 166.047,245.678 165.391,244.326 C 164.734,242.974 164.406,241.543 164.406,240.035 z M 166.75,240.064 C 166.75,242.134 167.307,243.765 168.42,244.957 C 169.535,246.148 170.932,246.744 172.613,246.744 C 174.324,246.744 175.734,246.142 176.84,244.939 C 177.946,243.736 178.5,242.029 178.5,239.818 C 178.5,238.42 178.264,237.199 177.79,236.156 C 177.316,235.113 176.625,234.304 175.715,233.73 C 174.804,233.156 173.781,232.869 172.649,232.869 C 171.038,232.869 169.653,233.422 168.491,234.527 C 167.33,235.633 166.75,237.479 166.75,240.064 z "
   id="path123" />
</g>
<path
   d="M 173.07348,193.88995 L 174.68753,193.88995 L 174.68753,223.38745 L 173.07348,223.38745 L 173.07348,193.88995 z "
   id="rect125" />
<path
   d="M 167.42003,193.88995 L 169.03598,193.88995 L 169.03598,223.38745 L 167.42003,223.38745 L 167.42003,193.88995 z "
   id="rect127" />
<g
   id="g129"
   transform="matrix(0.95,0,0,0.95,7.060975,6.21745)">
	<path
   d="M 69.774,208.75 L 69.774,191.562 L 72.055,191.562 L 72.055,198.625 L 80.946,198.625 L 80.946,191.562 L 83.227,191.562 L 83.227,208.75 L 80.946,208.75 L 80.946,200.656 L 72.055,200.656 L 72.055,208.75 L 69.774,208.75 z "
   id="path131" />
</g>
<g
   id="g133"
   transform="matrix(0.95,0,0,0.95,7.060975,6.21745)">
	<path
   d="M 84.236,209.844 L 85.814,209.625 C 85.997,210.521 86.306,211.168 86.742,211.563 C 87.179,211.959 87.714,212.157 88.349,212.157 C 89.102,212.157 89.735,211.899 90.248,211.384 C 90.761,210.869 91.017,210.231 91.017,209.47 C 91.017,208.743 90.779,208.145 90.301,207.673 C 89.824,207.202 89.218,206.966 88.482,206.966 C 88.181,206.966 87.807,207.025 87.36,207.142 L 87.537,205.751 C 87.643,205.763 87.728,205.769 87.793,205.769 C 88.467,205.769 89.074,205.593 89.614,205.243 C 90.154,204.892 90.424,204.351 90.424,203.62 C 90.424,203.041 90.227,202.561 89.833,202.182 C 89.439,201.802 88.931,201.612 88.308,201.612 C 87.691,201.612 87.176,201.806 86.765,202.194 C 86.353,202.583 86.089,203.165 85.972,203.94 L 84.394,203.659 C 84.587,202.597 85.028,201.774 85.714,201.19 C 86.4,200.607 87.254,200.315 88.275,200.315 C 88.979,200.315 89.628,200.465 90.22,200.767 C 90.812,201.068 91.265,201.479 91.58,201.999 C 91.893,202.52 92.051,203.072 92.051,203.657 C 92.051,204.213 91.902,204.719 91.603,205.175 C 91.304,205.631 90.862,205.993 90.276,206.263 C 91.038,206.439 91.63,206.803 92.055,207.358 C 92.479,207.911 92.692,208.604 92.692,209.436 C 92.692,210.561 92.281,211.515 91.459,212.297 C 90.637,213.08 89.598,213.471 88.342,213.471 C 87.209,213.471 86.268,213.135 85.52,212.461 C 84.768,211.787 84.341,210.914 84.236,209.844 z "
   id="path135" />
</g>
<g
   id="g137"
   transform="matrix(0.95,0,0,0.95,7.060975,6.21745)">
	<path
   d="M 106.813,202.723 L 109.094,203.297 C 108.618,205.167 107.761,206.593 106.525,207.574 C 105.288,208.556 103.775,209.047 101.988,209.047 C 100.138,209.047 98.634,208.67 97.475,207.915 C 96.316,207.16 95.434,206.068 94.829,204.637 C 94.224,203.206 93.922,201.67 93.922,200.028 C 93.922,198.237 94.263,196.675 94.946,195.342 C 95.629,194.008 96.6,192.996 97.861,192.304 C 99.121,191.612 100.507,191.266 102.021,191.266 C 103.738,191.266 105.181,191.704 106.351,192.58 C 107.522,193.457 108.337,194.689 108.797,196.277 L 106.563,196.804 C 106.165,195.554 105.588,194.644 104.832,194.074 C 104.075,193.504 103.123,193.219 101.977,193.219 C 100.659,193.219 99.557,193.535 98.671,194.168 C 97.786,194.801 97.164,195.65 96.805,196.717 C 96.446,197.784 96.267,198.883 96.267,200.016 C 96.267,201.477 96.479,202.752 96.904,203.842 C 97.329,204.932 97.989,205.746 98.886,206.285 C 99.783,206.824 100.753,207.094 101.798,207.094 C 103.069,207.094 104.144,206.727 105.025,205.992 C 105.906,205.257 106.501,204.168 106.813,202.723 z "
   id="path139" />
</g>
<path
   d="M 114.74348,191.32495 L 113.93598,189.89995 L 128.75598,181.34995 L 129.56253,182.77495 L 114.74348,191.32495 z "
   id="polygon141" />
<g
   id="g143"
   transform="matrix(0.95,0,0,0.95,7.060975,6.21745)">
	<path
   d="M 268.986,109.6 L 268.986,92.412 L 271.267,92.412 L 271.267,99.475 L 280.158,99.475 L 280.158,92.412 L 282.439,92.412 L 282.439,109.6 L 280.158,109.6 L 280.158,101.506 L 271.267,101.506 L 271.267,109.6 L 268.986,109.6 z "
   id="path145" />
</g>
<path
   d="M 256.62502,104.25745 L 260.28252,110.52745 L 238.10003,120.26495 L 236.29503,120.16995 L 237.10158,118.60245 L 256.62502,104.25745 z "
   id="polygon147" />
<g
   id="g149"
   transform="matrix(0.95,0,0,0.95,7.060975,6.21745)">
	<path
   d="M 165.887,169.1 L 165.887,151.912 L 168.168,151.912 L 168.168,158.975 L 177.059,158.975 L 177.059,151.912 L 179.34,151.912 L 179.34,169.1 L 177.059,169.1 L 177.059,161.006 L 168.168,161.006 L 168.168,169.1 L 165.887,169.1 z "
   id="path151" />
</g>
<path
   d="M 182.66848,155.31995 L 179.05753,149.04995 L 180.53098,148.38495 L 183.99848,154.36995 L 182.66848,155.31995 z "
   id="polygon153" />
<path
   d="M 185.56408,153.18245 L 182.38253,147.62495 L 183.85598,147.00745 L 186.84848,152.18495 L 185.56408,153.18245 z "
   id="polygon155" />
<path
   d="M 188.46253,150.99745 L 185.70753,146.24745 L 187.18097,145.58245 L 189.74503,149.99995 L 188.46253,150.99745 z "
   id="polygon157" />
<path
   d="M 191.31253,148.81245 L 189.03253,144.82245 L 190.50598,144.15745 L 192.64348,147.86245 L 191.31253,148.81245 z "
   id="polygon159" />
<path
   d="M 194.21097,146.67495 L 192.31098,143.39745 L 193.83098,142.77995 L 195.49347,145.67745 L 194.21097,146.67495 z "
   id="polygon161" />
<path
   d="M 197.10753,144.48995 L 195.63598,141.97245 L 197.15597,141.35495 L 198.38907,143.49245 L 197.10753,144.48995 z "
   id="polygon163" />
<path
   d="M 199.95753,142.30495 L 198.96097,140.59495 L 200.48098,139.92995 L 201.28753,141.35495 L 199.95753,142.30495 z "
   id="polygon165" />
<g
   id="g167"
   transform="matrix(0.95,0,0,0.95,7.060975,6.21745)">
	<path
   d="M 131.537,109.6 L 131.537,92.412 L 133.818,92.412 L 133.818,99.475 L 142.709,99.475 L 142.709,92.412 L 144.99,92.412 L 144.99,109.6 L 142.709,109.6 L 142.709,101.506 L 133.818,101.506 L 133.818,109.6 L 131.537,109.6 z "
   id="path169" />
</g>
<path
   d="M 150.03598,98.84245 L 146.42503,92.52495 L 147.89848,91.90745 L 151.36408,97.84495 L 150.03598,98.84245 z "
   id="polygon171" />
<path
   d="M 152.93253,96.65745 L 149.75003,91.09995 L 151.22348,90.48245 L 154.26253,95.65995 L 152.93253,96.65745 z "
   id="polygon173" />
<path
   d="M 155.83098,94.47245 L 153.07503,89.72245 L 154.54848,89.05745 L 157.11253,93.52245 L 155.83098,94.47245 z "
   id="polygon175" />
<path
   d="M 158.68097,92.33495 L 156.40003,88.29745 L 157.87348,87.67995 L 160.01098,91.33745 L 158.68097,92.33495 z "
   id="polygon177" />
<path
   d="M 161.57657,90.14995 L 159.72503,86.87245 L 161.19848,86.25495 L 162.90753,89.15245 L 161.57657,90.14995 z "
   id="polygon179" />
<path
   d="M 164.47503,87.96495 L 163.00158,85.49495 L 164.52347,84.82995 L 165.75753,87.01495 L 164.47503,87.96495 z "
   id="polygon181" />
<path
   d="M 167.32503,85.82745 L 166.32657,84.06995 L 167.84848,83.40495 L 168.65598,84.82995 L 167.32503,85.82745 z "
   id="polygon183" />
</svg>