<svg width="84" height="58" viewBox="0 0 84 58" fill="none" xmlns="http://www.w3.org/2000/svg">
<rect x="0.5" y="0.5" width="83" height="57" rx="3.5" fill="white" stroke="#F3F3F3"/>
<path d="M61.4017 33.8365C58.7295 44.5566 47.8685 51.0731 37.1638 48.4008C26.4435 45.7286 19.9269 34.8679 22.5992 24.1635C25.2714 13.4434 36.1168 6.92695 46.8371 9.59915C57.5418 12.2557 64.074 23.1165 61.4017 33.8365Z" fill="url(#paint0_linear_1132_281)"/>
<path d="M51.5227 26.5078C51.9133 23.8516 49.8977 22.4141 47.1165 21.4609L48.0227 17.8516L45.8352 17.3047L44.9602 20.8203C44.3821 20.6797 43.7883 20.5391 43.1946 20.4141L44.0696 16.8828L41.8821 16.3359L40.9915 19.9297C40.5071 19.8203 40.0383 19.7109 39.5852 19.6016V19.5859L36.554 18.8359L35.9758 21.1797C35.9758 21.1797 37.6008 21.5547 37.5696 21.5703C38.4602 21.7891 38.6165 22.3828 38.5852 22.8516L37.554 26.9609C37.6165 26.9766 37.6946 26.9922 37.7883 27.0391C37.7102 27.0234 37.6321 27.0078 37.554 26.9766L36.1165 32.7266C36.0071 32.9922 35.7258 33.3984 35.1165 33.2422C35.1321 33.2734 33.5227 32.8516 33.5227 32.8516L32.429 35.3672L35.2883 36.0859C35.8196 36.2266 36.3352 36.3516 36.8508 36.4922L35.9446 40.1328L38.1321 40.6797L39.0383 37.0703C39.6321 37.2266 40.2258 37.3828 40.7883 37.5234L39.8977 41.1172L42.0852 41.6641L42.9915 38.0234C46.7415 38.7266 49.554 38.4453 50.7258 35.0547C51.679 32.3359 50.679 30.7578 48.7102 29.7266C50.1633 29.3984 51.2415 28.4453 51.5227 26.5078ZM46.5071 33.5391C45.8352 36.2578 41.2415 34.7891 39.7571 34.4141L40.9602 29.5859C42.4446 29.9609 47.2258 30.6953 46.5071 33.5391ZM47.1946 26.4609C46.5696 28.9453 42.7571 27.6797 41.5227 27.3672L42.6165 22.9922C43.8508 23.3047 47.8352 23.8828 47.1946 26.4609Z" fill="white"/>
<defs>
<linearGradient id="paint0_linear_1132_281" x1="41.9893" y1="8.99058" x2="41.9893" y2="48.996" gradientUnits="userSpaceOnUse">
<stop stop-color="#F9AA4B"/>
<stop offset="1" stop-color="#F7931A"/>
</linearGradient>
</defs>
</svg>
