<svg width="84" height="58" viewBox="0 0 84 58" fill="none" xmlns="http://www.w3.org/2000/svg">
<rect x="0.5" y="0.5" width="83" height="57" rx="3.5" fill="white" stroke="#F3F3F3"/>
<path fill-rule="evenodd" clip-rule="evenodd" d="M13.685 20.3019L13.685 20.3019C14.3747 20.2901 16.0604 20.2614 16.7949 22.7433C17.3148 24.5001 18.143 27.3779 19.2795 31.3766H19.7424C20.9612 27.1609 21.7984 24.2831 22.2541 22.7433C22.9873 20.2657 24.7545 20.29 25.6115 20.3018C25.6661 20.3025 25.7169 20.3032 25.7636 20.3032L31.7806 20.3032V39.0427H25.6479V27.9992H25.2366L21.818 39.0427H17.2039L13.7853 27.991H13.374V39.0427H7.24133V20.3032L13.5877 20.3032C13.6174 20.303 13.6499 20.3025 13.685 20.3019ZM40.5871 20.3032V31.3549H41.0763L45.2348 22.2672C46.042 20.4587 47.7625 20.3032 47.7625 20.3032H53.6971V39.0427H47.4363V27.991H46.9471L42.8702 37.0788C42.0629 38.8791 40.2609 39.0427 40.2609 39.0427H34.3263V20.3032H40.5871ZM68.6847 33.4605C71.721 33.4605 74.4636 31.6861 75.3369 29.2084H56.1654V39.0427H62.119V33.4605H68.6847Z" fill="#40A548"/>
<path d="M68.972 20.3033H55.8534C56.1656 24.4753 59.7542 28.0468 63.4691 28.0468H75.7508C76.4595 24.5794 74.0196 20.3033 68.972 20.3033Z" fill="#1291D0"/>
</svg>
