<svg width="84" height="58" viewBox="0 0 84 58" fill="none" xmlns="http://www.w3.org/2000/svg">
<rect x="0.5" y="0.5" width="83" height="57" rx="3.5" fill="white" stroke="#F3F3F3"/>
<path d="M39.4146 36.4186H42.1449V31.3304H45.0298C48.5109 31.3304 50.3802 29.2422 50.3802 26.3451C50.3802 23.4702 48.533 21.3599 45.0666 21.3599H39.4146V36.4186ZM42.1449 29.0878V23.6393H44.6472C46.6931 23.6393 47.5983 24.7422 47.5983 26.3451C47.5983 27.9481 46.6931 29.0878 44.6619 29.0878H42.1449Z" fill="black"/>
<path d="M53.0075 36.4186L54.2513 32.7054H59.9181L61.1692 36.4186H64.0836L58.77 21.3599H55.3994L50.0932 36.4186H53.0075ZM54.9873 30.5142L57.0258 24.4481H57.1436L59.1822 30.5142H54.9873Z" fill="black"/>
<path d="M63.5004 21.3599L68.9832 30.801V36.4186H71.7062V30.801L77.189 21.3599H74.1054L70.4183 28.0216H70.2711L66.584 21.3599H63.5004Z" fill="black"/>
<circle cx="19.8255" cy="28.8255" r="12.8255" fill="#FC3F1D"/>
<path d="M24.8182 36.3636H22.1758V23.2653H20.9958C18.8353 23.2653 17.7052 24.3471 17.7052 25.9615C17.7052 27.7923 18.4863 28.6411 20.0984 29.7229L21.4279 30.6217L17.6055 36.3636H14.7637L18.2038 31.2375C16.2262 29.8228 15.1127 28.4414 15.1127 26.1113C15.1127 23.1987 17.1402 21.2182 20.9792 21.2182H24.8016V36.3636H24.8182Z" fill="white"/>
</svg>
